# xmcd
#
# Track frame offsets:
#	150
#	16910
#	31709
#	48392
#	58197
#	67021
#	84214
#	98147
#	112856
#	135891
#	153964
#	174221
#	193829
#	207831
#	223749
#	236525
#	256079
#	271021
#
# Disc length: 3802 seconds
#
# Revision: 1
# Processed by: cddbd v1.5.2PL0 Copyright (c) Steve Scherf et al.
# Submitted via: audiograbber 1.83.01
#
DISCID=e10ed812
DTITLE=Various Artist - Songs For My Ute Volume 5 [Disc 2]
DYEAR=2007
DGENRE=Country
TTITLE0=Lee Kernaghan - She's My Ute
TTITLE1=Jet - Roll Over DJ
TTITLE2=The Sunny Cowgirls - Cuttin' Up B&S Style
TTITLE3=The Vines - Don't Listen To The Radio
TTITLE4=The McClymonts - Love You Like That
TTITLE5=Matt Scullion - Giddy Up
TTITLE6=Nickelback - Animals
TTITLE7=Brooks and Dunn - Play Something Country
TTITLE8=Collective Soul - Shine
TTITLE9=Montgomery Gentry - Speed
TTITLE10=Travis Collins - Start The Car
TTITLE11=The Bloodhound Gang - The Bad Touch
TTITLE12=Jayne Denham - Chick Ute
TTITLE13=Travis Sinclair - Midnight Run
TTITLE14=The Caesars - Jerk It Out
TTITLE15=Travis Tritt - Put Some Drive In Your Country
TTITLE16=Amber Lawrence - I've Got The Blues
TTITLE17=Faith No More - Easy
EXTD=YEAR: 2007
EXTT0=
EXTT1=
EXTT2=
EXTT3=
EXTT4=
EXTT5=
EXTT6=
EXTT7=
EXTT8=
EXTT9=
EXTT10=
EXTT11=
EXTT12=
EXTT13=
EXTT14=
EXTT15=
EXTT16=
EXTT17=
PLAYORDER=
